<svg xmlns="http://www.w3.org/2000/svg" viewBox="0 0 90 128.24"><defs><style>.cls-1{fill:#fff;}.cls-2{fill:#ff8736;}.cls-3{fill:#17aa2b;}.cls-4{fill:#1ad33c;}</style></defs><title>Asset 5</title><g id="Layer_2" data-name="Layer 2"><g id="Layer_3" data-name="Layer 3"><path class="cls-1" d="M87.8,25.44a7.47,7.47,0,0,0-5.3-2.2h-30a7.51,7.51,0,0,0-7.5,7.5v22.5H37.5A37.49,37.49,0,0,0,0,90.74v22.5a15,15,0,0,0,.37,3.31q.06.3.15.6a8.52,8.52,0,0,0,.26.86c.08.23.16.45.25.68s.19.47.3.71.3.64.47,1c0,0,0,0,0,0,.17.3.35.6.53.88s.39.6.6.88l0,.06c.19.25.38.49.58.72a7.17,7.17,0,0,0,.52.58l.32.33c.17.18.35.35.54.52l.34.29.52.43.23.18.72.51.46.28a4.25,4.25,0,0,0,.46.27l.41.23.16.08.38.18c.3.15.61.28.93.41l.1,0,.42.16a14.19,14.19,0,0,0,1.61.46l.54.11a5.07,5.07,0,0,0,.54.09l.19,0,.65.07.7.05.7,0H45v-7.5a7.5,7.5,0,0,0-7.5-7.5H30a14.92,14.92,0,0,0-4.4-10.6l-.43-.4-.8-.7c-.3-.24-.62-.49-1-.72l-1-.61-.6-.32c-.22-.12-.44-.22-.67-.32a30,30,0,0,1,38,21.76A37.42,37.42,0,0,0,75,90.74V53.24a15,15,0,0,0,15-15v-7.5A7.47,7.47,0,0,0,87.8,25.44Zm-20.4,8.8a3.76,3.76,0,0,1-1.09,2.9,3.84,3.84,0,0,1-4.12.83,3.65,3.65,0,0,1-2.27-3.73Z"/><rect class="cls-2" x="60" y="8.24" width="15" height="15" rx="7.37"/><path class="cls-3" d="M77.15,8.24H67a5,5,0,0,1,4.89-5h0A5.25,5.25,0,0,1,77.15,8.24Z"/><path class="cls-4" d="M74.19,1.32,67,8.49a5.07,5.07,0,0,1,.17-7h0A5.07,5.07,0,0,1,74.19,1.32Z"/></g></g></svg>